<svg width="16" height="16" viewBox="0 0 16 16" fill="none" xmlns="http://www.w3.org/2000/svg">
  <path
    d="M7.37516 8.62467V11.333C7.37516 11.5101 7.43509 11.6585 7.55495 11.7782C7.67482 11.8981 7.82329 11.958 8.00037 11.958C8.17759 11.958 8.326 11.8981 8.44558 11.7782C8.5653 11.6585 8.62516 11.5101 8.62516 11.333V8.62467H11.3335C11.5106 8.62467 11.659 8.56474 11.7787 8.44488C11.8986 8.32502 11.9585 8.17655 11.9585 7.99947C11.9585 7.82224 11.8986 7.67384 11.7787 7.55426C11.659 7.43454 11.5106 7.37467 11.3335 7.37467H8.62516V4.66634C8.62516 4.48926 8.56523 4.34085 8.44537 4.22113C8.32551 4.10127 8.17704 4.04134 7.99995 4.04134C7.82273 4.04134 7.67433 4.10127 7.55475 4.22113C7.43502 4.34085 7.37516 4.48926 7.37516 4.66634V7.37467H4.66683C4.48975 7.37467 4.34134 7.4346 4.22162 7.55447C4.10176 7.67433 4.04183 7.8228 4.04183 7.99988C4.04183 8.1771 4.10176 8.32551 4.22162 8.44509C4.34134 8.56481 4.48975 8.62467 4.66683 8.62467H7.37516ZM8.00162 15.9163C6.90662 15.9163 5.87738 15.7086 4.91391 15.293C3.95044 14.8775 3.11238 14.3135 2.39975 13.6011C1.68711 12.8888 1.12287 12.0511 0.707038 11.088C0.291343 10.125 0.0834961 9.09599 0.0834961 8.00113C0.0834961 6.90613 0.291274 5.8769 0.706829 4.91342C1.12238 3.94995 1.68634 3.1119 2.3987 2.39926C3.11107 1.68662 3.94877 1.12238 4.91183 0.706549C5.87488 0.290855 6.90384 0.0830078 7.9987 0.0830078C9.0937 0.0830078 10.1229 0.290785 11.0864 0.706341C12.0499 1.1219 12.8879 1.68586 13.6006 2.39822C14.3132 3.11058 14.8775 3.94829 15.2933 4.91134C15.709 5.8744 15.9168 6.90335 15.9168 7.99822C15.9168 9.09322 15.7091 10.1225 15.2935 11.0859C14.8779 12.0494 14.314 12.8875 13.6016 13.6001C12.8893 14.3127 12.0516 14.877 11.0885 15.2928C10.1254 15.7085 9.09648 15.9163 8.00162 15.9163Z"
    fill="currentColor" />
</svg>
